<mxfile host="app.diagrams.net" agent="Mozilla/5.0 (X11; Linux x86_64) AppleWebKit/537.36 (KHTML, like Gecko) Chrome/123.0.0.0 Safari/537.36" version="25.0.1">
  <diagram name="Page-1" id="bZT6YFpuHdJkarrXuI94">
    <mxGraphModel dx="3010" dy="1214" grid="1" gridSize="10" guides="1" tooltips="1" connect="1" arrows="1" fold="1" page="1" pageScale="1" pageWidth="827" pageHeight="1169" math="0" shadow="0">
      <root>
        <mxCell id="0" />
        <mxCell id="1" parent="0" />
        <mxCell id="m7jlMjGi3Hprk2HbhxgS-10" value="&lt;font style=&quot;font-size: 14px;&quot; color=&quot;#000000&quot;&gt;&lt;b&gt;DigitalOcean&lt;/b&gt;&lt;/font&gt;" style="shape=umlFrame;whiteSpace=wrap;html=1;pointerEvents=0;width=130;height=30;fillColor=#0050ef;fontColor=#ffffff;strokeColor=#001DBC;" vertex="1" parent="1">
          <mxGeometry x="-30" y="410" width="1030" height="630" as="geometry" />
        </mxCell>
        <mxCell id="m7jlMjGi3Hprk2HbhxgS-11" value="&lt;font style=&quot;font-size: 14px;&quot; color=&quot;#030303&quot;&gt;&lt;b&gt;Kubernetes Cluster&lt;/b&gt;&lt;/font&gt;" style="shape=umlFrame;whiteSpace=wrap;html=1;pointerEvents=0;width=160;height=30;fillColor=#1ba1e2;fontColor=#ffffff;strokeColor=#006EAF;" vertex="1" parent="1">
          <mxGeometry x="380" y="440" width="600" height="520" as="geometry" />
        </mxCell>
        <mxCell id="m7jlMjGi3Hprk2HbhxgS-12" value="&lt;font style=&quot;font-size: 14px;&quot;&gt;&lt;b style=&quot;&quot;&gt;DO&lt;/b&gt;&lt;/font&gt;&lt;div&gt;&lt;font style=&quot;font-size: 14px;&quot;&gt;&lt;b style=&quot;&quot;&gt;Managed Database&lt;/b&gt;&lt;/font&gt;&lt;/div&gt;" style="shape=datastore;whiteSpace=wrap;html=1;fillColor=#0050ef;fontColor=#ffffff;strokeColor=#001DBC;" vertex="1" parent="1">
          <mxGeometry x="57" y="870" width="150" height="140" as="geometry" />
        </mxCell>
        <mxCell id="m7jlMjGi3Hprk2HbhxgS-13" value="&lt;font style=&quot;font-size: 14px;&quot;&gt;CDN&lt;/font&gt;&lt;div&gt;&lt;font style=&quot;font-size: 14px;&quot;&gt;(Content delivery network)&lt;/font&gt;&lt;/div&gt;" style="editableCssRules=.*;html=1;shape=image;verticalLabelPosition=bottom;labelBackgroundColor=#ffffff;verticalAlign=top;aspect=fixed;imageAspect=0;image=data:image/svg+xml,PHN2ZyB4bWxucz0iaHR0cDovL3d3dy53My5vcmcvMjAwMC9zdmciIHhtbG5zOnY9Imh0dHBzOi8vdmVjdGEuaW8vbmFubyIgd2lkdGg9IjIwIiBoZWlnaHQ9IjIwIiB2aWV3Qm94PSIwIDAgMjAgMjAiPiYjeGE7CTxzdHlsZSB0eXBlPSJ0ZXh0L2NzcyI+JiN4YTsJLnN0MHtmaWxsOiM0Mjg1ZjQ7fSYjeGE7CS5zdDF7ZmlsbDojNjY5ZGY2O30mI3hhOwkuc3Qye2ZpbGw6I2FlY2JmYTt9JiN4YTsJPC9zdHlsZT4mI3hhOwk8cGF0aCBjbGFzcz0ic3QxIiBkPSJNMTMuMTMgNS42M1YzLjIxTDEwIDB2Mi40MXptMy43NSA3LjVMMjAgMTBoLTIuNWwtMy4xMiAzLjEzem0tMTMuNzUgMEwwIDEwaDIuNWwzLjEzIDMuMTN6bTEwIDEuMjV2Mi40MUwxMCAyMHYtMi40MXoiIGZpbGwtcnVsZT0iZXZlbm9kZCIvPiYjeGE7CTxwYXRoIGNsYXNzPSJzdDIiIGQ9Ik02Ljg4IDUuNjNMMTAgMi40MVYwTDYuODggMy4yMXpNMTcuNSAxMEgyMGwtMy4xMi0zLjEyaC0yLjV6bS0xNSAwSDBsMy4xMy0zLjEyaDIuNXptNC4zOCA0LjM4TDEwIDE3LjU5VjIwbC0zLjEyLTMuMjF6bTAtNy41aDYuMjV2Ni4yNUg2Ljg4eiIgZmlsbC1ydWxlPSJldmVub2RkIi8+JiN4YTsJPHBhdGggY2xhc3M9InN0MSIgZD0iTTYuODggMTMuMTNsNi4yNS02LjI1djYuMjV6IiBmaWxsLXJ1bGU9ImV2ZW5vZGQiLz4mI3hhOwk8cGF0aCBjbGFzcz0ic3QwIiBkPSJNMTAgMTBsMy4xMy0zLjEydjYuMjV6IiBmaWxsLXJ1bGU9ImV2ZW5vZGQiLz4mI3hhOzwvc3ZnPg==;" vertex="1" parent="1">
          <mxGeometry x="95" y="510" width="80" height="80" as="geometry" />
        </mxCell>
        <mxCell id="m7jlMjGi3Hprk2HbhxgS-20" style="edgeStyle=orthogonalEdgeStyle;rounded=0;orthogonalLoop=1;jettySize=auto;html=1;exitX=0;exitY=0.81;exitDx=0;exitDy=0;exitPerimeter=0;entryX=0.5;entryY=0;entryDx=0;entryDy=0;curved=1;" edge="1" parent="1" source="m7jlMjGi3Hprk2HbhxgS-19" target="m7jlMjGi3Hprk2HbhxgS-13">
          <mxGeometry relative="1" as="geometry" />
        </mxCell>
        <mxCell id="m7jlMjGi3Hprk2HbhxgS-19" value="&lt;font style=&quot;font-size: 14px;&quot;&gt;Web Client&lt;/font&gt;" style="verticalLabelPosition=bottom;html=1;verticalAlign=top;align=center;strokeColor=none;fillColor=#00BEF2;shape=mxgraph.azure.website_generic;pointerEvents=1;" vertex="1" parent="1">
          <mxGeometry x="30" y="86" width="128" height="102.5" as="geometry" />
        </mxCell>
        <mxCell id="m7jlMjGi3Hprk2HbhxgS-22" value="Load static content&lt;div&gt;(HTML/CSS/JS)&lt;/div&gt;&lt;div&gt;(Images, videos, etc)&lt;/div&gt;" style="text;html=1;align=center;verticalAlign=middle;resizable=0;points=[];autosize=1;strokeColor=none;fillColor=none;" vertex="1" parent="1">
          <mxGeometry x="57" y="263" width="130" height="60" as="geometry" />
        </mxCell>
        <mxCell id="m7jlMjGi3Hprk2HbhxgS-23" value="&lt;font style=&quot;font-size: 14px;&quot;&gt;Phone&lt;/font&gt;&lt;div&gt;&lt;font style=&quot;font-size: 14px;&quot;&gt;application&lt;/font&gt;&lt;/div&gt;" style="verticalLabelPosition=bottom;html=1;verticalAlign=top;align=center;strokeColor=none;fillColor=#00BEF2;shape=mxgraph.azure.mobile_services;pointerEvents=1;" vertex="1" parent="1">
          <mxGeometry x="558" y="180" width="70" height="110" as="geometry" />
        </mxCell>
        <mxCell id="m7jlMjGi3Hprk2HbhxgS-24" style="edgeStyle=orthogonalEdgeStyle;rounded=0;orthogonalLoop=1;jettySize=auto;html=1;exitX=0.92;exitY=0.5;exitDx=0;exitDy=0;exitPerimeter=0;entryX=0.003;entryY=0.481;entryDx=0;entryDy=0;entryPerimeter=0;curved=1;" edge="1" parent="1" source="m7jlMjGi3Hprk2HbhxgS-19" target="m7jlMjGi3Hprk2HbhxgS-11">
          <mxGeometry relative="1" as="geometry">
            <Array as="points">
              <mxPoint x="280" y="137" />
              <mxPoint x="280" y="690" />
            </Array>
          </mxGeometry>
        </mxCell>
        <mxCell id="m7jlMjGi3Hprk2HbhxgS-25" style="edgeStyle=orthogonalEdgeStyle;rounded=0;orthogonalLoop=1;jettySize=auto;html=1;exitX=0.02;exitY=0.98;exitDx=0;exitDy=0;exitPerimeter=0;entryX=0;entryY=0.477;entryDx=0;entryDy=0;entryPerimeter=0;curved=1;" edge="1" parent="1" source="m7jlMjGi3Hprk2HbhxgS-23" target="m7jlMjGi3Hprk2HbhxgS-11">
          <mxGeometry relative="1" as="geometry">
            <Array as="points">
              <mxPoint x="559" y="280" />
              <mxPoint x="340" y="280" />
              <mxPoint x="340" y="688" />
            </Array>
          </mxGeometry>
        </mxCell>
        <mxCell id="m7jlMjGi3Hprk2HbhxgS-26" value="&lt;font style=&quot;font-size: 14px;&quot;&gt;Ingress&lt;/font&gt;&lt;div&gt;&lt;font style=&quot;font-size: 14px;&quot;&gt;(API gateway)&lt;/font&gt;&lt;/div&gt;" style="aspect=fixed;sketch=0;html=1;dashed=0;whitespace=wrap;verticalLabelPosition=bottom;verticalAlign=top;fillColor=#2875E2;strokeColor=#ffffff;points=[[0.005,0.63,0],[0.1,0.2,0],[0.9,0.2,0],[0.5,0,0],[0.995,0.63,0],[0.72,0.99,0],[0.5,1,0],[0.28,0.99,0]];shape=mxgraph.kubernetes.icon2;prIcon=ing" vertex="1" parent="1">
          <mxGeometry x="400" y="674.1800000000001" width="64.21" height="61.64" as="geometry" />
        </mxCell>
        <mxCell id="m7jlMjGi3Hprk2HbhxgS-29" value="Auth API" style="sketch=0;html=1;dashed=0;whitespace=wrap;verticalLabelPosition=bottom;verticalAlign=top;fillColor=#2875E2;strokeColor=#ffffff;points=[[0.005,0.63,0],[0.1,0.2,0],[0.9,0.2,0],[0.5,0,0],[0.995,0.63,0],[0.72,0.99,0],[0.5,1,0],[0.28,0.99,0]];shape=mxgraph.kubernetes.icon2;prIcon=ep" vertex="1" parent="1">
          <mxGeometry x="688" y="591" width="70" height="70" as="geometry" />
        </mxCell>
        <mxCell id="m7jlMjGi3Hprk2HbhxgS-30" value="&lt;font style=&quot;font-size: 14px;&quot; color=&quot;#030303&quot;&gt;&lt;b&gt;Node&lt;/b&gt;&lt;/font&gt;" style="shape=umlFrame;whiteSpace=wrap;html=1;pointerEvents=0;width=82;height=30;fillColor=#1ba1e2;fontColor=#ffffff;strokeColor=#006EAF;" vertex="1" parent="1">
          <mxGeometry x="628" y="490" width="330" height="430" as="geometry" />
        </mxCell>
        <mxCell id="m7jlMjGi3Hprk2HbhxgS-31" value="Pod" style="sketch=0;html=1;dashed=0;whitespace=wrap;verticalLabelPosition=bottom;verticalAlign=top;fillColor=#2875E2;strokeColor=#ffffff;points=[[0.005,0.63,0],[0.1,0.2,0],[0.9,0.2,0],[0.5,0,0],[0.995,0.63,0],[0.72,0.99,0],[0.5,1,0],[0.28,0.99,0]];shape=mxgraph.kubernetes.icon2;prIcon=pod" vertex="1" parent="1">
          <mxGeometry x="828" y="591" width="70" height="70" as="geometry" />
        </mxCell>
        <mxCell id="m7jlMjGi3Hprk2HbhxgS-32" style="edgeStyle=orthogonalEdgeStyle;rounded=0;orthogonalLoop=1;jettySize=auto;html=1;exitX=0.995;exitY=0.63;exitDx=0;exitDy=0;exitPerimeter=0;entryX=0.005;entryY=0.63;entryDx=0;entryDy=0;entryPerimeter=0;" edge="1" parent="1" source="m7jlMjGi3Hprk2HbhxgS-29" target="m7jlMjGi3Hprk2HbhxgS-31">
          <mxGeometry relative="1" as="geometry" />
        </mxCell>
        <mxCell id="m7jlMjGi3Hprk2HbhxgS-33" value="SF CRM" style="sketch=0;html=1;dashed=0;whitespace=wrap;verticalLabelPosition=bottom;verticalAlign=top;fillColor=#2875E2;strokeColor=#ffffff;points=[[0.005,0.63,0],[0.1,0.2,0],[0.9,0.2,0],[0.5,0,0],[0.995,0.63,0],[0.72,0.99,0],[0.5,1,0],[0.28,0.99,0]];shape=mxgraph.kubernetes.icon2;prIcon=ep" vertex="1" parent="1">
          <mxGeometry x="688" y="806" width="70" height="70" as="geometry" />
        </mxCell>
        <mxCell id="m7jlMjGi3Hprk2HbhxgS-34" value="Pod" style="sketch=0;html=1;dashed=0;whitespace=wrap;verticalLabelPosition=bottom;verticalAlign=top;fillColor=#2875E2;strokeColor=#ffffff;points=[[0.005,0.63,0],[0.1,0.2,0],[0.9,0.2,0],[0.5,0,0],[0.995,0.63,0],[0.72,0.99,0],[0.5,1,0],[0.28,0.99,0]];shape=mxgraph.kubernetes.icon2;prIcon=pod" vertex="1" parent="1">
          <mxGeometry x="828" y="806" width="70" height="70" as="geometry" />
        </mxCell>
        <mxCell id="m7jlMjGi3Hprk2HbhxgS-35" style="edgeStyle=orthogonalEdgeStyle;rounded=0;orthogonalLoop=1;jettySize=auto;html=1;exitX=0.995;exitY=0.63;exitDx=0;exitDy=0;exitPerimeter=0;entryX=0.005;entryY=0.63;entryDx=0;entryDy=0;entryPerimeter=0;" edge="1" parent="1" source="m7jlMjGi3Hprk2HbhxgS-33" target="m7jlMjGi3Hprk2HbhxgS-34">
          <mxGeometry relative="1" as="geometry" />
        </mxCell>
        <mxCell id="m7jlMjGi3Hprk2HbhxgS-36" value="Pod" style="sketch=0;html=1;dashed=0;whitespace=wrap;verticalLabelPosition=bottom;verticalAlign=top;fillColor=#2875E2;strokeColor=#ffffff;points=[[0.005,0.63,0],[0.1,0.2,0],[0.9,0.2,0],[0.5,0,0],[0.995,0.63,0],[0.72,0.99,0],[0.5,1,0],[0.28,0.99,0]];shape=mxgraph.kubernetes.icon2;prIcon=pod" vertex="1" parent="1">
          <mxGeometry x="828" y="499" width="70" height="70" as="geometry" />
        </mxCell>
        <mxCell id="m7jlMjGi3Hprk2HbhxgS-37" style="edgeStyle=orthogonalEdgeStyle;rounded=0;orthogonalLoop=1;jettySize=auto;html=1;exitX=0.995;exitY=0.63;exitDx=0;exitDy=0;exitPerimeter=0;entryX=0.005;entryY=0.63;entryDx=0;entryDy=0;entryPerimeter=0;" edge="1" parent="1" source="m7jlMjGi3Hprk2HbhxgS-29" target="m7jlMjGi3Hprk2HbhxgS-36">
          <mxGeometry relative="1" as="geometry" />
        </mxCell>
        <mxCell id="m7jlMjGi3Hprk2HbhxgS-38" value="Pod" style="sketch=0;html=1;dashed=0;whitespace=wrap;verticalLabelPosition=bottom;verticalAlign=top;fillColor=#2875E2;strokeColor=#ffffff;points=[[0.005,0.63,0],[0.1,0.2,0],[0.9,0.2,0],[0.5,0,0],[0.995,0.63,0],[0.72,0.99,0],[0.5,1,0],[0.28,0.99,0]];shape=mxgraph.kubernetes.icon2;prIcon=pod" vertex="1" parent="1">
          <mxGeometry x="828" y="713" width="70" height="70" as="geometry" />
        </mxCell>
        <mxCell id="m7jlMjGi3Hprk2HbhxgS-39" style="edgeStyle=orthogonalEdgeStyle;rounded=0;orthogonalLoop=1;jettySize=auto;html=1;exitX=0.995;exitY=0.63;exitDx=0;exitDy=0;exitPerimeter=0;entryX=0.005;entryY=0.63;entryDx=0;entryDy=0;entryPerimeter=0;" edge="1" parent="1" source="m7jlMjGi3Hprk2HbhxgS-33" target="m7jlMjGi3Hprk2HbhxgS-38">
          <mxGeometry relative="1" as="geometry" />
        </mxCell>
        <mxCell id="m7jlMjGi3Hprk2HbhxgS-40" style="edgeStyle=orthogonalEdgeStyle;rounded=0;orthogonalLoop=1;jettySize=auto;html=1;exitX=0.995;exitY=0.63;exitDx=0;exitDy=0;exitPerimeter=0;entryX=0.005;entryY=0.63;entryDx=0;entryDy=0;entryPerimeter=0;curved=1;" edge="1" parent="1" source="m7jlMjGi3Hprk2HbhxgS-26" target="m7jlMjGi3Hprk2HbhxgS-29">
          <mxGeometry relative="1" as="geometry" />
        </mxCell>
        <mxCell id="m7jlMjGi3Hprk2HbhxgS-41" style="edgeStyle=orthogonalEdgeStyle;rounded=0;orthogonalLoop=1;jettySize=auto;html=1;exitX=0.995;exitY=0.63;exitDx=0;exitDy=0;exitPerimeter=0;entryX=0.005;entryY=0.63;entryDx=0;entryDy=0;entryPerimeter=0;curved=1;" edge="1" parent="1" source="m7jlMjGi3Hprk2HbhxgS-26" target="m7jlMjGi3Hprk2HbhxgS-33">
          <mxGeometry relative="1" as="geometry" />
        </mxCell>
        <mxCell id="m7jlMjGi3Hprk2HbhxgS-42" value="" style="endArrow=classic;html=1;rounded=0;entryX=1;entryY=0.5;entryDx=0;entryDy=0;exitX=0.515;exitY=1.002;exitDx=0;exitDy=0;exitPerimeter=0;edgeStyle=orthogonalEdgeStyle;curved=1;" edge="1" parent="1" source="m7jlMjGi3Hprk2HbhxgS-11" target="m7jlMjGi3Hprk2HbhxgS-12">
          <mxGeometry width="50" height="50" relative="1" as="geometry">
            <mxPoint x="340" y="770" as="sourcePoint" />
            <mxPoint x="390" y="720" as="targetPoint" />
            <Array as="points">
              <mxPoint x="689" y="990" />
              <mxPoint x="300" y="990" />
              <mxPoint x="300" y="940" />
            </Array>
          </mxGeometry>
        </mxCell>
      </root>
    </mxGraphModel>
  </diagram>
</mxfile>
